PathFileType	4	(X/Y/Z)	22_2_26_p1_0-205.trc
DataRate	CameraRate	NumFrames	NumMarkers	Units	OrigDataRate	OrigDataStartFrame	OrigNumFrames
59.0	59.0	5	27	m	59.0	0	206
Frame#	Time	RHip			RKnee			RAnkle			RBigToe			RSmallToe			RHeel			LHip			LKnee			LAnkle			LBigToe			LSmallToe			LHeel			Neck			Head			Nose			RShoulder			RElbow			RWrist			RThumb			RIndex			RPinky			LShoulder			LElbow			LWrist			LThumb			LIndex			LPinky			
		X1	Y1	Z1	X2	Y2	Z2	X3	Y3	Z3	X4	Y4	Z4	X5	Y5	Z5	X6	Y6	Z6	X7	Y7	Z7	X8	Y8	Z8	X9	Y9	Z9	X10	Y10	Z10	X11	Y11	Z11	X12	Y12	Z12	X13	Y13	Z13	X14	Y14	Z14	X15	Y15	Z15	X16	Y16	Z16	X17	Y17	Z17	X18	Y18	Z18	X19	Y19	Z19	X20	Y20	Z20	X21	Y21	Z21	X22	Y22	Z22	X23	Y23	Z23	X24	Y24	Z24	X25	Y25	Z25	X26	Y26	Z26	X27	Y27	Z27	
0	0.0	0.27030312590994493	0.6549935671531772	1.027939329999261	0.2821215781483422	0.7865637559255023	1.4361820865704118	0.2936102768434176	0.9636103770784292	1.8400907970997746	0.2549496488216682	0.7216286138050159	1.8785404441835438	0.3091418298277572	0.7688732838250322	1.8854440471360836	0.28768858615902726	1.0109398599194177	1.8796904392130962	0.04194556373899772	0.6921514338042312	1.045176678549583	0.07833121239669516	0.7972209542327194	1.4272023691981448	0.09246768345803401	0.9035897749519446	1.819891743642363	0.09811665565836986	0.7421543786648873	1.877460888478971	0.05057562308020575	0.7863376059622152	1.8808687235307717	0.1287999940817375	0.9978764612208207	1.879441630947306	0.12313296377688711	0.45741540142788306	0.4884970617960694	0.10899649948576756	0.3462167555072542	0.25337882777054743	0.09556541506698428	0.3137942380394641	0.40849650868512366	0.26681923752358355	0.4623010023936217	0.5652902897935915	0.34332662162559263	0.45209627697283966	0.8067082065030037	0.223196350900015	0.44734539236342086	1.037582435696	0.12141597999562627	0.4636550943181643	1.1328738799503872	0.12699888786413885	0.47802961216978035	1.1458852115463958	0.15409304653870282	0.4632387114100347	1.1435652706949544	-0.03726661617990634	0.47588029121839454	0.5609544444133412	-0.04673766315490378	0.530203299662169	0.8051070655480381	0.06055157599314417	0.44746775912452175	1.0226089650489103	0.13609149568471002	0.45274721761326564	1.0963135964012343	0.13712849341077119	0.46296781107008744	1.1356371817846465	0.1267136829090138	0.47795449668398976	1.1348407038706674
1	0.01694915254237288	0.2703278701550927	0.654502368939673	1.027721409435124	0.2802285312694157	0.7850695574108753	1.4360303869403688	0.2953270831076144	0.9448109489585645	1.8339715564945016	0.24962070129172614	0.7090554818727893	1.8738506186783717	0.30830788819285615	0.7568238099462485	1.8811495246189482	0.28826838903565255	1.0118826404232721	1.88001182626849	0.03756047005235862	0.6910280953666992	1.0451605303523857	0.07842394016326282	0.7971223254765434	1.4271325470825618	0.09226652316186887	0.9040789874506264	1.8158129964109884	0.0981832422350588	0.7422380462159287	1.8773161397063984	0.05081868543421685	0.7860842518309614	1.8805415286701541	0.1240622520846896	0.9945923583995566	1.878054978586096	0.12315051273880998	0.45738300871753407	0.48848212560686133	0.10893027141342528	0.34614848074903487	0.2534685137324478	0.09559419864646432	0.31358648962473606	0.4084717197118365	0.2668613468899074	0.46231143137252745	0.5653470937596534	0.3434760465246913	0.4517673816302994	0.8106107948281106	0.2194611587524332	0.4475249439923572	1.0379056669594362	0.12136401483736621	0.46398637094657297	1.132814593907894	0.12694360413319364	0.4781510658823779	1.1458442232746489	0.15243234539256756	0.45007658493512515	1.141837611846304	-0.0370292890375103	0.4769485135843696	0.5641049865666928	-0.04745005087929708	0.5285256213668635	0.8011483889049864	0.055533608960193576	0.44552136401891773	1.0183428657727285	0.12461314275886416	0.4613555863746896	1.0939837138549922	0.13260180660982876	0.4622988913685827	1.1322353294482674	0.12639102162359836	0.47743648986201404	1.1345228734844184
2	0.03389830508474576	0.2700152408041547	0.6558280294252095	1.031772016805132	0.2816936051946091	0.7876341923256145	1.4409808276469016	0.29364859244374397	0.9637908283049336	1.840120126830471	0.24961568430407607	0.7094792544360199	1.873942594357264	0.30831635036046395	0.7575060222877084	1.8813039112970023	0.2945468705050201	1.0279768734875572	1.8850486320231372	0.03753967047226558	0.6909242842872809	1.0453081900414032	0.0783581102477875	0.7972683136440625	1.4271896768433334	0.09861878701212246	0.9181058383939322	1.8155347088511296	0.09810324572234663	0.7424604486666728	1.8774625547097343	0.05030065641469049	0.7876858937429486	1.876796111770555	0.13182186407421817	0.9792197045450487	1.873215978951606	0.12315722271216972	0.4574241928575288	0.48852636852509834	0.10882709309295605	0.34638367434763057	0.253439826445807	0.09559238933401983	0.31360675437927893	0.40845721446223887	0.26663422192820263	0.4620041524230011	0.5618974355792115	0.34338606658646853	0.4515608691837405	0.8106303116426238	0.21944802114339648	0.44747635957245513	1.0379266024995166	0.121372247817798	0.46384655631286525	1.1328610997178261	0.1269649582690814	0.4779252848821726	1.1458317055717222	0.15606254400455521	0.44939476595069117	1.1415321932776634	-0.037033966537512134	0.4761383754894274	0.5609657125743084	-0.046418063729439074	0.5304618552144226	0.8083849361450471	0.06034287473950626	0.44740195283607437	1.0226150147112023	0.1288257779924727	0.4635630025258503	1.0937828371935083	0.1365858674868631	0.46339083069005405	1.1323838872067207	0.126589820573396	0.47788975722140303	1.1347608326950258
3	0.05084745762711865	0.2710320263793813	0.6580245137506432	1.0363323277299201	0.2816795412499695	0.7877260089072242	1.4409832923926609	0.29360073281563054	0.9638736786208031	1.8400970936469903	0.2495201608043043	0.7094094493619364	1.8739572416660542	0.3083185679826219	0.7572245032472283	1.8812300900383585	0.2944437367290748	1.027575653627853	1.8848238782090532	0.03748915539627362	0.6909733269400682	1.0454297022100525	0.078318970238113	0.797276062720394	1.4272288644316682	0.0986032105735777	0.9179951188824123	1.815425118033576	0.09807262111898392	0.7424466516384503	1.8774277459877355	0.050231893830485735	0.7878663748184519	1.8768638583498587	0.13186358224341946	0.9794606623935117	1.873331019052022	0.12313830920220405	0.4573630595631915	0.48851902286383464	0.10437635313345062	0.34543697207912427	0.2538701159023228	0.09555272360090747	0.3134610255125878	0.4084062467407414	0.2674472184330736	0.4636024122721777	0.5653263625271809	0.3434057647682964	0.4515351665623119	0.8106218465171754	0.21943988277523568	0.4474869900909429	1.0379507555526009	0.12129363527078924	0.4641061404454911	1.1329178788034286	0.12211150783752679	0.46654342874917704	1.1445309756143154	0.15223211606859377	0.4497335056478901	1.1417076625467584	-0.0371189476817529	0.4760457749853636	0.5609863371911178	-0.04643161859099848	0.5303468839108397	0.8084454496237062	0.05945920599748479	0.4456445410803805	1.0185742345050597	0.1289339174840197	0.4631563090467448	1.0939084328159852	0.136950548524969	0.46271857170595576	1.1354396936903866	0.12624205535776445	0.4784332794069068	1.1385689907289305
4	0.06779661016949153	0.2699322800295094	0.6562379589624119	1.0319968745108337	0.2816042566066217	0.7876942577181913	1.4407644148606136	0.29361625966466093	0.9638700005832785	1.8400963007726576	0.24969936063927836	0.7096880136499316	1.8739120484981546	0.306819347916743	0.7546113110576055	1.8763832183733389	0.2944046673836888	1.02755242725525	1.8848156473026612	0.03744568519402228	0.6909600363347839	1.045347191864784	0.07833819934798654	0.7972743929995835	1.4271617813534745	0.09861340414283162	0.9180107043386513	1.8153977471489668	0.09809764622540539	0.7424203004007067	1.8774412615898088	0.05037329709203389	0.7881255325358999	1.876953697872173	0.1294676508618473	0.9993374351596416	1.8797975786424774	0.12315780671755659	0.4572852062596716	0.48846005219395217	0.10442435062307379	0.3449966707258483	0.2538513961731006	0.09559235411590493	0.3134911416873295	0.4084160676288774	0.26745764048381904	0.4637745056964601	0.5653404064068405	0.34343946711973483	0.45156944928868853	0.8106189542623244	0.21740610028961155	0.46018649276506035	1.0393040783514607	0.12132148983857387	0.4637033295568791	1.1327755361766616	0.12109320171077669	0.4644118748950119	1.1404707006284445	0.15214144700278898	0.4495300917248689	1.1416218867715673	-0.03706463567437089	0.4760521364519642	0.5609817255588997	-0.05071038358296751	0.5290549529850455	0.8051396034329894	0.05946129779841734	0.4456622008276905	1.0185270448418917	0.12932262563700994	0.46424029011904283	1.0934047610126632	0.13685466132829527	0.463393815401587	1.1323191086197526	0.12669592890017847	0.4775722236870151	1.1347502801890017
